<?xml version="1.0" encoding="utf-8"?>
<!-- Generator: Adobe Illustrator 15.1.0, SVG Export Plug-In . SVG Version: 6.00 Build 0)  -->
<!DOCTYPE svg PUBLIC "-//W3C//DTD SVG 1.1//EN" "http://www.w3.org/Graphics/SVG/1.1/DTD/svg11.dtd">
<svg version="1.1" id="Capa_1" xmlns="http://www.w3.org/2000/svg" xmlns:xlink="http://www.w3.org/1999/xlink" x="0px" y="0px"
	 width="3297.314px" height="1668.166px" viewBox="0 0 3297.314 1668.166" enable-background="new 0 0 3297.314 1668.166"
	 xml:space="preserve">
<g id="Floor_2_">
	<polygon id="Floor" fill="#2D2A2E" points="7.5,151.515 189.872,7.5 1648.847,7.5 1648.847,1660.666 186.882,1660.666 7.5,1510.65 
			"/>
	<polygon id="Floor_1_" fill="#2D2A2E" points="3289.814,1520.497 3107.443,1664.512 1648.466,1664.512 1648.466,11.346 
		3110.431,11.346 3289.814,161.362 	"/>
</g>
<g id="Wall">
	<polyline id="Wall_outline" fill="none" stroke="#000000" stroke-width="15" stroke-miterlimit="10" points="1654.665,7.5 
		190.518,7.5 7.5,151.515 7.5,1510.651 187.518,1660.666 1654.665,1660.666 	"/>
	<polyline id="Wall_outline_1_" fill="none" stroke="#000000" stroke-width="15" stroke-miterlimit="10" points="1642.649,1660.664 
		3106.796,1660.664 3289.814,1516.65 3289.814,157.515 3109.796,7.5 1642.649,7.5 	"/>
</g>
<g id="Left_Side">
	<g id="Black_Floor">
		
			<line id="Floor_Black" fill="none" stroke="#000000" stroke-width="7" stroke-miterlimit="10" x1="622.597" y1="19" x2="622.597" y2="1653.5"/>
		
			<line fill="none" stroke="#000000" stroke-width="5" stroke-miterlimit="10" x1="1003.847" y1="836.25" x2="1358.454" y2="836.25"/>
	</g>
	<g id="Switch">
		<polygon id="Switch_Plate_1_" fill="#5E5E5E" points="738.847,469.75 738.847,652.75 815.847,652.75 978.847,652.75 
			978.847,469.75 		"/>
		<rect id="Switch_Plate" x="738.847" y="1018.75" fill="#5E5E5E" width="240" height="182"/>
		<polygon fill="#5E5E5E" points="820.847,1018.75 835.083,1018.75 835.083,652.75 819.847,652.75 		"/>
		<polygon fill="#5E5E5E" points="885.847,1019.25 900.083,1019.25 900.083,653.25 884.847,653.25 		"/>
		
			<rect x="723.847" y="449.583" fill="none" stroke="#000000" stroke-width="7" stroke-miterlimit="10" width="273.333" height="773.333"/>
	</g>
	<g id="White_Markings">
		<polyline fill="none" stroke="#F2F2F2" stroke-width="13" stroke-miterlimit="10" points="1471.647,7.5 1471.647,490.548 
			1523.347,490.548 		"/>
		<polyline fill="none" stroke="#F2F2F2" stroke-width="13" stroke-miterlimit="10" points="1471.647,1664.066 1471.647,1181.018 
			1523.347,1181.018 		"/>
	</g>
	<g id="Red_Field_Markings">
		<polyline id="Pickup_Marking" fill="none" stroke="#FF0000" stroke-width="15" stroke-miterlimit="10" points="15.181,536.75 
			187.847,536.75 187.847,768.75 15.181,768.75 		"/>
		<polyline fill="none" stroke="#FF0000" stroke-width="15" stroke-miterlimit="10" points="714.847,726.75 512.847,726.75 
			512.847,943.75 714.847,943.75 		"/>
		
			<line fill="none" stroke="#FF0000" stroke-width="12" stroke-miterlimit="10" x1="1003.847" y1="501.75" x2="1524.597" y2="501.75"/>
		
			<line fill="none" stroke="#FF0000" stroke-width="12" stroke-miterlimit="10" x1="1003.847" y1="1169.817" x2="1523.347" y2="1169.817"/>
	</g>
	<g id="Red_Riser">
		<polygon fill="#B30000" points="1331.513,508.083 1330.847,1163.5 1337.181,1163.5 1397.847,1103.005 1397.847,570.249 
			1338.181,508.083 		"/>
		<polygon fill="#800000" points="1397.847,572.75 1603.181,572.75 1603.181,565.75 1525.597,565.75 1524.597,508.083 
			1338.181,508.083 		"/>
		<polygon fill="#800000" points="1397.813,1099.007 1603.147,1099.007 1603.147,1106.007 1525.563,1106.007 1524.563,1163.673 
			1337.181,1163.5 		"/>
		<polygon fill="#CF0000" points="1397.847,572.75 1397.813,1099.007 1603.147,1099.007 1603.181,572.75 		"/>
	</g>
	<g id="Scale">
		
			<line id="Outline" fill="none" stroke="#000000" stroke-width="7" stroke-miterlimit="10" x1="1604.847" y1="563.25" x2="1604.347" y2="1108.75"/>
		<rect id="Truss" x="1593.347" y="792.25" fill="#5E5E5E" width="55.5" height="87.5"/>
		<polygon id="Scale_1_" fill="#1A1A1A" points="1593.347,803.75 1561.847,803.75 1561.847,868.25 1593.347,868.25 1593.347,879.75 
			1552.347,879.75 1552.347,792.25 1593.347,792.25 		"/>
		<polyline id="Middle_Peice" fill="#5E5E5E" points="1616.847,792.25 1616.847,790.25 1616.847,563.25 1627.347,563.25 
			1627.347,792.25 		"/>
		<polyline id="Middle_Piece" fill="#5E5E5E" points="1616.847,1108.75 1616.847,1106.75 1616.847,879.75 1627.347,879.75 
			1627.347,1108.75 		"/>
		<rect id="Platform_1_" x="1527.347" y="381.25" fill="#999999" width="121.5" height="182"/>
		<rect id="Platform" x="1527.347" y="1108.75" fill="#999999" width="121.5" height="182"/>
	</g>
</g>
<g id="Right_Side_1_">
	<g id="Black_Floor_1_">
		
			<line id="Floor_Black_1_" fill="none" stroke="#000000" stroke-width="7" stroke-miterlimit="10" x1="2674.716" y1="1653.012" x2="2674.716" y2="18.512"/>
		
			<line fill="none" stroke="#000000" stroke-width="5" stroke-miterlimit="10" x1="2293.466" y1="835.762" x2="1938.861" y2="835.762"/>
	</g>
	<g id="Switch_1_">
		<polygon id="Switch_Plate_3_" fill="#5E5E5E" points="2558.466,1202.262 2558.466,1019.262 2481.466,1019.262 2318.466,1019.262 
			2318.466,1202.262 		"/>
		<rect id="Switch_Plate_2_" x="2318.466" y="471.262" fill="#5E5E5E" width="240" height="182"/>
		<polygon fill="#5E5E5E" points="2476.466,653.262 2462.232,653.262 2462.232,1019.262 2477.466,1019.262 		"/>
		<polygon fill="#5E5E5E" points="2411.466,652.762 2397.232,652.762 2397.232,1018.762 2412.466,1018.762 		"/>
		
			<rect x="2300.132" y="449.096" fill="none" stroke="#000000" stroke-width="7" stroke-miterlimit="10" width="273.334" height="773.332"/>
	</g>
	<g id="White_Markings_1_">
		<polyline fill="none" stroke="#F2F2F2" stroke-width="13" stroke-miterlimit="10" points="1825.667,1664.51 1825.667,1181.463 
			1773.966,1181.463 		"/>
		<polyline fill="none" stroke="#F2F2F2" stroke-width="13" stroke-miterlimit="10" points="1825.667,7.946 1825.667,490.994 
			1773.966,490.994 		"/>
	</g>
	<g id="Blue_Field_Markings">
		<polyline id="Pickup_Marking_1_" fill="none" stroke="#111183" stroke-width="15" stroke-miterlimit="10" points="
			3282.132,1135.262 3109.466,1135.262 3109.466,903.262 3282.132,903.262 		"/>
		<polyline fill="none" stroke="#111183" stroke-width="15" stroke-miterlimit="10" points="2582.466,945.262 2784.466,945.262 
			2784.466,728.262 2582.466,728.262 		"/>
		
			<line fill="none" stroke="#111183" stroke-width="12" stroke-miterlimit="10" x1="2293.466" y1="1170.262" x2="1772.716" y2="1170.262"/>
		
			<line fill="none" stroke="#111183" stroke-width="12" stroke-miterlimit="10" x1="2293.466" y1="502.195" x2="1773.966" y2="502.195"/>
	</g>
	<g id="Blue_Riser">
		<polygon fill="#0C0B59" points="1965.8,1163.928 1966.466,508.512 1960.132,508.512 1899.466,569.006 1899.466,1101.762 
			1959.132,1163.928 		"/>
		<polygon fill="#090946" points="1899.466,1099.262 1694.132,1099.262 1694.132,1106.262 1771.716,1106.262 1772.716,1163.928 
			1959.132,1163.928 		"/>
		<polygon fill="#090946" points="1899.5,573.004 1694.167,573.004 1694.167,566.004 1771.75,566.004 1772.75,508.338 
			1960.132,508.512 		"/>
		<polygon fill="#111183" points="1899.466,1099.262 1899.5,573.004 1694.167,573.004 1694.132,1099.262 		"/>
	</g>
	<g id="Scale_2_">
		
			<line id="Outline_1_" fill="none" stroke="#000000" stroke-width="7" stroke-miterlimit="10" x1="1692.466" y1="1108.762" x2="1692.966" y2="563.262"/>
		<rect id="Truss_1_" x="1648.466" y="792.262" fill="#5E5E5E" width="55.5" height="87.5"/>
		<polygon id="Scale_3_" fill="#1A1A1A" points="1703.966,868.262 1735.466,868.262 1735.466,803.762 1703.966,803.762 
			1703.966,792.262 1744.966,792.262 1744.966,879.762 1703.966,879.762 		"/>
		<polyline id="Middle_Peice_1_" fill="#5E5E5E" points="1680.466,879.762 1680.466,881.762 1680.466,1108.762 1669.966,1108.762 
			1669.966,879.762 		"/>
		<polyline id="Middle_Piece_1_" fill="#5E5E5E" points="1680.466,563.262 1680.466,565.262 1680.466,792.262 1669.966,792.262 
			1669.966,563.262 		"/>
		<rect id="Platform_3_" x="1648.466" y="1108.762" fill="#999999" width="121.5" height="182"/>
		<rect id="Platform_2_" x="1648.466" y="381.262" fill="#999999" width="121.5" height="182"/>
	</g>
</g>
</svg>
